<?xml version="1.0" encoding="utf-8"?>
<!-- Generator: Adobe Illustrator 26.0.0, SVG Export Plug-In . SVG Version: 6.00 Build 0)  -->
<svg version="1.1" id="Layer_1" xmlns="http://www.w3.org/2000/svg" xmlns:xlink="http://www.w3.org/1999/xlink" x="0px" y="0px"
	 viewBox="0 0 412.21 263.82" style="enable-background:new 0 0 412.21 263.82;" xml:space="preserve">
<style type="text/css">
	.st0{fill:url(#SVGID_1_);stroke:#000000;stroke-miterlimit:10;}
	.st1{fill:#FFFFFF;stroke:#000000;stroke-miterlimit:10;}
	.st2{fill:none;}
	.st3{fill:none;stroke:#000000;stroke-miterlimit:10;}
	.st4{fill:#FF0001;stroke:#000000;stroke-width:0.25;stroke-miterlimit:10;}
	.st5{fill:url(#SVGID_00000062884341429986355050000010548561691941055630_);stroke:#000000;stroke-miterlimit:10;}
	.st6{fill:#E5E5E5;stroke:#000000;stroke-miterlimit:10;}
	.st7{fill:#6E5856;stroke:#000000;stroke-miterlimit:10;}
	.st8{fill:url(#SVGID_00000176753325259095649500000006566214429732508843_);stroke:#000000;stroke-miterlimit:10;}
</style>
<linearGradient id="SVGID_1_" gradientUnits="userSpaceOnUse" x1="5.1425" y1="131.5421" x2="405.7326" y2="131.5421">
	<stop  offset="2.793296e-03" style="stop-color:#F7333B;stop-opacity:0"/>
	<stop  offset="0.176" style="stop-color:#F59286;stop-opacity:0.0248"/>
	<stop  offset="0.2654" style="stop-color:#F6A093;stop-opacity:0.1068"/>
	<stop  offset="0.4553" style="stop-color:#F6AB9F;stop-opacity:0.26"/>
	<stop  offset="1" style="stop-color:#F64A4A;stop-opacity:0.069"/>
</linearGradient>
<path class="st0" d="M5.33,161.63c-0.34-11.62,0.85-29.18,10.44-46.17C41.3,70.25,96.4,81.98,202.1,42.36
	c68.91-25.83,79.8-43.68,112.67-36.82c42.83,8.92,80.28,50.86,89.04,99.48c12.91,71.64-43.24,120.21-46.72,123.11
	c-36.85,30.78-83.97,35.41-118.17,27.48c-43.09-9.99-42.11-34.47-80.24-41.77c-60.46-11.57-99.33,43.02-130.81,25.28
	C16.56,232.75,3.39,215.46,5.33,161.63z"/>
<g>
	<path class="st1" d="M59.1,146.27c-0.18,4.72-0.17,19.92,10.46,34.01c14.82,19.65,37.9,20.75,41.03,20.85
		c28.22,0.86,44.28-20.11,45.71-22.06c2.12-2.61,5.37-7.54,7.36-12.86c2.97-7.95,2.88-14.99,0.32-32.66l-54.5-9.95L59.1,146.27z"/>
</g>
<path class="st2" d="M53.07,193.58"/>
<circle class="st3" cx="114.22" cy="159.56" r="16.4"/>
<circle class="st3" cx="114.41" cy="159.67" r="4.5"/>
<circle class="st3" cx="114.41" cy="159.56" r="9.48"/>
<circle class="st4" cx="114.57" cy="172.5" r="2.89"/>
<circle class="st4" cx="127.42" cy="159.65" r="2.89"/>
<circle class="st4" cx="101.41" cy="159.46" r="2.89"/>
<circle class="st4" cx="114.41" cy="146.53" r="2.89"/>
<linearGradient id="SVGID_00000153703685183277682180000000117013445071887017_" gradientUnits="userSpaceOnUse" x1="42.8315" y1="116.2049" x2="181.9176" y2="116.2049">
	<stop  offset="0.0811" style="stop-color:#FFFFFF"/>
	<stop  offset="0.2042" style="stop-color:#F6E7E5"/>
	<stop  offset="0.5884" style="stop-color:#DDA09A"/>
	<stop  offset="0.8632" style="stop-color:#CD736B"/>
	<stop  offset="1" style="stop-color:#C76259"/>
</linearGradient>
<path style="fill:url(#SVGID_00000153703685183277682180000000117013445071887017_);stroke:#000000;stroke-miterlimit:10;" d="
	M46.43,104.89c10.84-19.51,45.41-18.15,65.43-18.69c25.57-0.68,66.46,4.14,69.91,20.34c0.92,4.32-2.71,11.39-3.16,18.96
	c-0.73,12.27-2.97,12.17-7.15,17.31c-6.69,8.25-8.17-0.24-33.46-4.71c-9.55-1.69-33.43-4.58-56.08,1.06
	c-12.12,3.02-17.15,8.11-22.86,6.12C46.61,140.94,37.46,121.03,46.43,104.89z"/>
<path class="st3" d="M48.29,102.66c10.85-5.19,38.42-9.52,58.07-9.7c43.59-0.38,53,4.48,75.42,13.57"/>
<g>
	<path class="st6" d="M349,153.27v7.57c0,2.63,2.13,4.76,4.76,4.76h13.28c1.1,0,2.11-0.37,2.91-1c1.13-0.87,1.85-2.24,1.85-3.77
		v-27.57c0-2.63-2.13-4.76-4.76-4.76h-13.28c-2.63,0-4.76,2.13-4.76,4.76v9.83"/>
	<path class="st1" d="M353.24,142.34l10.01-0.14v9.69v-0.34l-47.69,5.44c-6.6-11.13-13.86-23.21-7.94-28.5
		c1.16-1.03,11.66-2.61,16.73-2.89l2.9-0.36c-2.06,2.81-5.45,8.93-6.32,16.5c-0.39,3.39-0.18,6.36,0.18,8.7"/>
	<polyline class="st1" points="353.81,142.2 320.71,150.54 321.11,150.44 363.79,142.66 	"/>
	<path class="st1" d="M242.56,119.76h-6.73c-9.38-12.39-12.42-22.95-13.56-29.31c-1.76-9.8,0.54-12.12,1.47-12.82
		c2.5-1.88,6.44-0.55,8.06,0c13.81,4.68,34.53,33.81,39.57,41.04"/>
	<path class="st1" d="M278.9,116.7c3.79,14.14,1.06,26.5-6.57,29.61c-8.99,3.66-22.28-6.55-28.49-23.01
		c-8.58-22.73-5.29-30.27,2.01-35.05"/>
	<path class="st3" d="M291.11,106.1"/>
	<path class="st3" d="M275.7,111.48"/>
	<path class="st3" d="M274.3,119.76"/>
	<path class="st1" d="M274.74,118.79c0.6,4.1,0.71,7.54,0.69,10.03c-0.07,7.99-1.58,9.99-2.2,10.72c-0.54,0.63-2.3,2.5-4.95,2.89
		c-0.91,0.13-4.32,0.44-10.17-5.36c-1.92-1.91-6.56-6.9-10.72-17.73c0,0-3.08-6.6-4.32-15.96c-0.21-1.57-0.51-4.38,0.75-6.58
		c1.5-2.62,5.24-3.62,6.48-3.98"/>
	<circle class="st7" cx="353.24" cy="134.52" r="1.67"/>
	<circle class="st7" cx="367.86" cy="134.47" r="1.67"/>
	<circle class="st7" cx="353.24" cy="161.02" r="1.67"/>
	<circle class="st7" cx="367.86" cy="161.02" r="1.67"/>
	
		<ellipse transform="matrix(0.1831 -0.9831 0.9831 0.1831 120.8903 426.4351)" class="st7" cx="317.05" cy="140.47" rx="4.73" ry="3.18"/>
	
		<linearGradient id="SVGID_00000093860635877190241990000005560158096199130543_" gradientUnits="userSpaceOnUse" x1="228.5044" y1="89.1518" x2="369.9395" y2="89.1518">
		<stop  offset="0.3261" style="stop-color:#F57D73"/>
		<stop  offset="0.6914" style="stop-color:#FFFFFF"/>
	</linearGradient>
	<path style="fill:url(#SVGID_00000093860635877190241990000005560158096199130543_);stroke:#000000;stroke-miterlimit:10;" d="
		M271.79,119.26c-5.4-5.7-11.18-15.81-20.24-26.38c-4.32-5.04-9.99-10.48-14.77-12.75c-4.49-2.14-4.44-3.13-7.21-3.48l-1.06-0.27
		c67.02-12.62,116.18-18.51,120.18-17.13c5.51,1.9,9.53,5.27,9.53,5.27c4.73,3.97,7.55,9.05,9.25,13.94
		c1.8,5.18,2.42,9.7,2.48,12.81c-1.1,0.31-2.21,0.62-3.31,0.93c-30.36,8.57-59.74,16.87-90.1,25.45c-1.1,0.12-2.17,1.06-3.27,1.18
		L271.79,119.26z"/>
	<path class="st1" d="M367,91.41c-0.03,1.85-0.26,4.74-0.96,7.22c-1.83,6.44-6.98,13.26-9.16,15.21l-82.58,31.68"/>
	<g>
		<path class="st1" d="M313.62,130.47c-1.47,0.64-1.6,1.56-2.13,2.11c-1.22,1.27-1.87,2.76-2.11,3.3c-0.6,1.39-0.77,2.49-1.09,2.47
			c-0.22-0.01,0.1,0.47,0,0v4.31c1.13,0.67,5.59,3.17,7.12,8.15c0.78,2.54,0.66,4.77,0.46,6.14h-9.05h0.45
			c0.2-1.37,0.33-3.6-0.46-6.14c-1.54-4.98-6.46-7.48-7.6-8.15v-4.31c0-1.17,1.7-2.37,2.51-3.32L313.62,130.47z"/>
		<rect x="299.22" y="138.32" class="st3" width="9.07" height="4.31"/>
	</g>
</g>
</svg>
