<?xml version="1.0" encoding="utf-8"?>
<!-- Generator: Adobe Illustrator 26.0.0, SVG Export Plug-In . SVG Version: 6.00 Build 0)  -->
<svg version="1.1" id="Layer_1" xmlns="http://www.w3.org/2000/svg" xmlns:xlink="http://www.w3.org/1999/xlink" x="0px" y="0px"
	 viewBox="0 0 443.61 315.98" style="enable-background:new 0 0 443.61 315.98;" xml:space="preserve">
<style type="text/css">
	.st0{fill:url(#SVGID_1_);stroke:#000000;stroke-miterlimit:10;}
	.st1{fill:none;stroke:#000000;stroke-miterlimit:10;}
	.st2{fill:url(#SVGID_00000036246773543638864690000013711028695263608982_);stroke:#000000;stroke-miterlimit:10;}
	.st3{fill:none;stroke:#000000;stroke-width:0.5;stroke-miterlimit:10;}
	.st4{fill:none;stroke:#FFFFFF;stroke-width:0.75;stroke-miterlimit:10;}
	.st5{fill:url(#SVGID_00000012455381769713368740000006059620857218575502_);stroke:#000000;stroke-miterlimit:10;}
	.st6{fill:#13017C;stroke:#000000;stroke-width:0.5;stroke-miterlimit:10;}
	.st7{fill:none;stroke:#000000;stroke-width:0.75;stroke-miterlimit:10;}
	.st8{fill:none;stroke:#000000;stroke-width:0.25;stroke-miterlimit:10;}
	.st9{fill:#FFFFFF;stroke:#000000;stroke-width:0.5;stroke-miterlimit:10;}
	.st10{fill:#FFFFFF;stroke:#000000;stroke-width:0.25;stroke-miterlimit:10;}
	.st11{fill:url(#SVGID_00000015324550337334098740000006622573424764508051_);stroke:#000000;stroke-miterlimit:10;}
	.st12{fill:none;stroke:#4D4D4D;stroke-width:2;stroke-miterlimit:10;}
	.st13{font-family:'MicrosoftSansSerif';}
	.st14{font-size:7px;}
	.st15{fill:#FFFFFF;stroke:#000000;stroke-miterlimit:10;}
	.st16{fill:url(#SVGID_00000029045839593821218380000010318906688531940787_);stroke:#000000;stroke-miterlimit:10;}
	.st17{fill:url(#SVGID_00000151512641235706179980000005663796500178063514_);stroke:#000000;stroke-miterlimit:10;}
	.st18{fill:url(#SVGID_00000042722580099697575080000017777373485965891727_);stroke:#000000;stroke-miterlimit:10;}
	.st19{fill:url(#SVGID_00000078759213981503389700000004424110530373092799_);stroke:#000000;stroke-miterlimit:10;}
	.st20{stroke:#000000;stroke-width:0.5;stroke-miterlimit:10;}
	.st21{fill:none;stroke:#000000;stroke-width:3;stroke-miterlimit:10;}
	.st22{fill:url(#SVGID_00000013879846819227233450000004797391134630393016_);stroke:#000000;stroke-miterlimit:10;}
	.st23{fill:url(#SVGID_00000141434248192614203100000007485976774956684478_);stroke:#000000;stroke-miterlimit:10;}
	.st24{fill:url(#SVGID_00000106120408485111568610000013220980581108516746_);stroke:#000000;stroke-miterlimit:10;}
	.st25{fill:url(#SVGID_00000090985668625779816580000001908671066371447720_);stroke:#000000;stroke-miterlimit:10;}
	.st26{fill:url(#SVGID_00000088126641508618148400000004487794407719886496_);stroke:#000000;stroke-miterlimit:10;}
	.st27{fill:url(#SVGID_00000108995808563850860310000017758807903831037597_);stroke:#000000;stroke-miterlimit:10;}
	.st28{fill:url(#SVGID_00000040558394945317937500000002896803153217166493_);stroke:#000000;stroke-miterlimit:10;}
	.st29{fill:url(#SVGID_00000101105480217418480490000000079208802249690246_);stroke:#000000;stroke-miterlimit:10;}
	.st30{fill:url(#SVGID_00000150103279247843989530000007728933589064918927_);stroke:#000000;stroke-miterlimit:10;}
	.st31{fill:url(#SVGID_00000028315797464288129020000007984391136016364473_);stroke:#000000;stroke-miterlimit:10;}
	.st32{fill:url(#SVGID_00000026162411054939877950000016192464016134699166_);stroke:#000000;stroke-miterlimit:10;}
	.st33{fill:url(#SVGID_00000020360447549347804180000011373963277943550882_);stroke:#000000;stroke-miterlimit:10;}
</style>
<g>
	<linearGradient id="SVGID_1_" gradientUnits="userSpaceOnUse" x1="342.9122" y1="131.3775" x2="361.8264" y2="131.3775">
		<stop  offset="0" style="stop-color:#F0A093;stop-opacity:0.1068"/>
		<stop  offset="0.5168" style="stop-color:#EE9B8E;stop-opacity:0.1442"/>
		<stop  offset="0.9721" style="stop-color:#C53C31"/>
	</linearGradient>
	<path class="st0" d="M361.78,98.71v48.64c0.17,1.29,0.03,7.44-4.12,12.09c-1.98,2.21-6.69,5.93-10.44,4.12
		c-2.1-1.01-3.98-3.67-4.31-4.76"/>
</g>
<path class="st1" d="M255.08,87.84"/>
<linearGradient id="SVGID_00000083803939956012716870000007371116362961682571_" gradientUnits="userSpaceOnUse" x1="42.8783" y1="74.438" x2="213.26" y2="74.438">
	<stop  offset="0.095" style="stop-color:#F35150;stop-opacity:0.8"/>
	<stop  offset="0.3484" style="stop-color:#F2756C;stop-opacity:0.334"/>
	<stop  offset="0.5056" style="stop-color:#F2867B;stop-opacity:0.0449"/>
	<stop  offset="0.9413" style="stop-color:#6C413E;stop-opacity:0.7"/>
</linearGradient>
<path style="fill:url(#SVGID_00000083803939956012716870000007371116362961682571_);stroke:#000000;stroke-miterlimit:10;" d="
	M207.76,79.93H48.37c-3.04,0-5.5-2.46-5.5-5.5v0c0-3.04,2.46-5.5,5.5-5.5h159.39c3.04,0,5.5,2.46,5.5,5.5v0
	C213.26,77.47,210.8,79.93,207.76,79.93z"/>
<path class="st3" d="M195.32,195.41"/>
<line class="st4" x1="190.53" y1="92.19" x2="190.53" y2="93.56"/>
<path class="st1" d="M109.47,88.03"/>
<line class="st4" x1="71.37" y1="92" x2="71.37" y2="93.95"/>
<path class="st1" d="M109.16,97.37"/>
<path class="st1" d="M109.17,95.16"/>
<linearGradient id="SVGID_00000082352129647318886950000012364853804358431628_" gradientUnits="userSpaceOnUse" x1="45.502" y1="202.7518" x2="211.4667" y2="202.7518">
	<stop  offset="0.095" style="stop-color:#F35150;stop-opacity:0.8"/>
	<stop  offset="0.3484" style="stop-color:#F2756C;stop-opacity:0.334"/>
	<stop  offset="0.5056" style="stop-color:#F2867B;stop-opacity:0.0449"/>
	<stop  offset="0.9413" style="stop-color:#6C413E;stop-opacity:0.7"/>
</linearGradient>
<polygon style="fill:url(#SVGID_00000082352129647318886950000012364853804358431628_);stroke:#000000;stroke-miterlimit:10;" points="
	211.47,204.26 210.98,200.41 210.29,199.41 46.69,199.6 45.95,200.18 45.5,205.56 46.41,206.09 210.77,205.69 "/>
<path class="st6" d="M190.86,195.63v6.43l0-0.04c0.01,0.39-0.28,0.71-0.6,0.72c-0.36,0.02-0.71-0.33-0.66-0.77l0,0.04v-6.39H190.86z
	"/>
<path class="st1" d="M109.53,194.41"/>
<circle class="st7" cx="71.37" cy="74.44" r="2.1"/>
<line class="st4" x1="71.37" y1="76.06" x2="71.37" y2="80.51"/>
<line class="st8" x1="70.78" y1="73.77" x2="71.95" y2="74.87"/>
<line class="st8" x1="71.96" y1="73.76" x2="70.79" y2="74.86"/>
<circle class="st7" cx="190.53" cy="74.54" r="2.1"/>
<line class="st8" x1="189.94" y1="73.87" x2="191.11" y2="74.97"/>
<line class="st8" x1="191.12" y1="73.86" x2="189.95" y2="74.96"/>
<path class="st1" d="M46.73,53.28"/>
<path class="st8" d="M71.13,68.94c0.1-0.93,0.15-2.28-0.16-3.85c-1.36-6.85-8.29-11.05-12.37-12.37
	c-8.38-2.72-19.3,3.02-22.32,18.69"/>
<g>
	<polygon class="st9" points="32.31,197.1 28.31,197.1 30.14,196.3 34.14,196.3 	"/>
	<line class="st10" x1="36.28" y1="71.42" x2="36.28" y2="193.3"/>
	<path class="st10" d="M32.79,191.81c0.21-0.14,0.53-0.5,0.96-0.61c0.17-0.04,0.36-0.09,0.6-0.09c0.87,0.01,1.48,0.73,1.56,0.82
		c0.11,0.13,0.42,0.53,0.48,1.12c0.01,0.15,0.04,0.45-0.09,0.8c-0.09,0.25-0.47,0.5-0.57,0.61"/>
	<circle class="st10" cx="33.93" cy="193.5" r="0.21"/>
	<path class="st10" d="M31.14,195.68c-0.04,0.1-0.08,0.25-0.1,0.43c-0.03,0.25-0.01,0.45,0.01,0.59"/>
	<path class="st10" d="M31.55,195.8c-0.03,0.09-0.06,0.22-0.08,0.39c-0.02,0.22-0.01,0.4,0.01,0.52"/>
	<path class="st10" d="M30.89,195.98"/>
	<circle class="st10" cx="33.93" cy="193.5" r="2.04"/>
	<line class="st10" x1="34.1" y1="193.59" x2="31.48" y2="195.87"/>
	<line class="st10" x1="33.73" y1="193.43" x2="31.1" y2="195.71"/>
	<line class="st9" x1="27.38" y1="197.34" x2="27.38" y2="202.31"/>
	<line class="st9" x1="32.31" y1="197.22" x2="32.31" y2="202.19"/>
	<line class="st9" x1="35.03" y1="196.11" x2="35.03" y2="201.08"/>
	<line class="st10" x1="27.38" y1="202.19" x2="32.42" y2="202.19"/>
	<line class="st10" x1="34.88" y1="200.88" x2="32.42" y2="202.19"/>
</g>
<linearGradient id="SVGID_00000111881035454299569840000013600229399160510345_" gradientUnits="userSpaceOnUse" x1="223.0692" y1="135.6823" x2="345.0844" y2="135.6823">
	<stop  offset="0.0112" style="stop-color:#F35150;stop-opacity:0.8"/>
	<stop  offset="0.3045" style="stop-color:#F2867B;stop-opacity:0.0449"/>
</linearGradient>
<path style="fill:url(#SVGID_00000111881035454299569840000013600229399160510345_);stroke:#000000;stroke-miterlimit:10;" d="
	M341.37,158.22h-114.6c-2.05,0-3.71-1.66-3.71-3.71v-37.65c0-2.05,1.66-3.71,3.71-3.71h114.6c2.05,0,3.71,1.66,3.71,3.71v37.65
	C345.08,156.56,343.42,158.22,341.37,158.22z"/>
<path class="st1" d="M233.15,163.44c-0.44-0.05-2.38-0.32-3.76-2.02c-0.91-1.12-1.13-2.3-1.19-2.84"/>
<path class="st1" d="M307.02,192.43"/>
<line class="st1" x1="232.54" y1="163.33" x2="348.66" y2="163.92"/>
<line class="st1" x1="350.03" y1="171.54" x2="350.03" y2="171.68"/>
<line class="st12" x1="230.08" y1="119.06" x2="338.35" y2="119.06"/>
<line class="st12" x1="230.03" y1="122.47" x2="338.31" y2="122.47"/>
<line class="st12" x1="230.03" y1="125.47" x2="338.31" y2="125.47"/>
<line class="st12" x1="230.03" y1="128.47" x2="338.31" y2="128.47"/>
<line class="st12" x1="230.03" y1="132.47" x2="338.31" y2="132.47"/>
<line class="st12" x1="230.03" y1="135.47" x2="338.31" y2="135.47"/>
<text transform="matrix(1 0 0 1 319.9614 151.881)" class="st13 st14">26°C</text>
<path class="st3" d="M333.86,154.37h-12.64c-2.45,0-4.44-1.99-4.44-4.44v-1.56c0-2.45,1.99-4.44,4.44-4.44h12.64
	c2.45,0,4.44,1.99,4.44,4.44v1.56C338.31,152.38,336.32,154.37,333.86,154.37z"/>
<path class="st15" d="M253.57,166.28c1.09,1.16,1.29,2.83,0.55,4.03c-0.57,0.92-1.74,0.65-2.56,1.47c-0.7,0.7-1.18,2.16-0.18,5.5"/>
<path class="st15" d="M258.55,166.28c1.09,1.16,1.29,2.83,0.55,4.03c-0.57,0.92-1.74,0.65-2.56,1.47c-0.7,0.7-1.18,2.16-0.18,5.5"/>
<path class="st15" d="M264.55,166.76c1.09,1.16,1.29,2.83,0.55,4.03c-0.57,0.92-1.74,0.65-2.56,1.47c-0.7,0.7-1.18,2.16-0.18,5.5"/>
<linearGradient id="SVGID_00000162323000652586896370000005716015736480592825_" gradientUnits="userSpaceOnUse" x1="113.0667" y1="273.446" x2="142.7737" y2="290.5973">
	<stop  offset="0.1676" style="stop-color:#FFFFFF"/>
	<stop  offset="0.3771" style="stop-color:#C53C31"/>
	<stop  offset="0.7067" style="stop-color:#FAEDE8"/>
	<stop  offset="0.7849" style="stop-color:#FFFFFF"/>
</linearGradient>
<ellipse style="fill:url(#SVGID_00000162323000652586896370000005716015736480592825_);stroke:#000000;stroke-miterlimit:10;" cx="127.92" cy="282.02" rx="18.79" ry="10.81"/>
<linearGradient id="SVGID_00000100342402762086679400000016484110313588593076_" gradientUnits="userSpaceOnUse" x1="143.7006" y1="287.2344" x2="149.7198" y2="290.7096">
	<stop  offset="0.1676" style="stop-color:#FFFFFF"/>
	<stop  offset="0.3771" style="stop-color:#C53C31"/>
	<stop  offset="0.7067" style="stop-color:#FAEDE8"/>
	<stop  offset="0.7849" style="stop-color:#FFFFFF"/>
</linearGradient>
<path style="fill:url(#SVGID_00000100342402762086679400000016484110313588593076_);stroke:#000000;stroke-miterlimit:10;" d="
	M146.71,295.92v-13.9V295.92z"/>
<linearGradient id="SVGID_00000149351954193283724920000013627905577221026179_" gradientUnits="userSpaceOnUse" x1="106.1205" y1="287.2344" x2="112.1397" y2="290.7096">
	<stop  offset="0.1676" style="stop-color:#FFFFFF"/>
	<stop  offset="0.3771" style="stop-color:#C53C31"/>
	<stop  offset="0.7067" style="stop-color:#FAEDE8"/>
	<stop  offset="0.7849" style="stop-color:#FFFFFF"/>
</linearGradient>
<path style="fill:url(#SVGID_00000149351954193283724920000013627905577221026179_);stroke:#000000;stroke-miterlimit:10;" d="
	M109.13,295.92v-13.9V295.92z"/>
<linearGradient id="SVGID_00000075873951243835663050000009738402877129892997_" gradientUnits="userSpaceOnUse" x1="112.949" y1="289.3079" x2="141.6476" y2="305.877">
	<stop  offset="0.1676" style="stop-color:#FFFFFF"/>
	<stop  offset="0.3771" style="stop-color:#C53C31"/>
	<stop  offset="0.7067" style="stop-color:#FAEDE8"/>
	<stop  offset="0.7849" style="stop-color:#FFFFFF"/>
</linearGradient>
<path style="fill:url(#SVGID_00000075873951243835663050000009738402877129892997_);stroke:#000000;stroke-miterlimit:10;" d="
	M109.13,295.92c0.05,4.86,9.12,11.26,18.79,10.76c12.66-0.66,19.21-7.82,18.79-10.76"/>
<path d="M124.92,288.38h-1.34c-0.55,0-1-0.45-1-1v-1.34c0-0.55,0.45-1,1-1h1.34c0.55,0,1,0.45,1,1v1.34
	C125.92,287.93,125.47,288.38,124.92,288.38z"/>
<path class="st20" d="M129.15,288.38h-1.34c-0.55,0-1-0.45-1-1v-1.34c0-0.55,0.45-1,1-1h1.34c0.55,0,1,0.45,1,1v1.34
	C130.14,287.93,129.7,288.38,129.15,288.38z"/>
<path class="st20" d="M133.37,288.38h-1.34c-0.55,0-1-0.45-1-1v-1.34c0-0.55,0.45-1,1-1h1.34c0.55,0,1,0.45,1,1v1.34
	C134.37,287.93,133.92,288.38,133.37,288.38z"/>
<g>
	<path class="st21" d="M165.75,266.74c2.26-0.25,4.71,0.76,6.41,2.64c2.48,2.75,2,5.86,1.96,6.11"/>
	
		<ellipse transform="matrix(0.7056 -0.7086 0.7086 0.7056 -144.1746 199.1228)" class="st20" cx="167.57" cy="273.09" rx="2.63" ry="3.17"/>
	<path class="st21" d="M165.84,262.83c3.41-0.52,7.04,0.86,9.49,3.6c3.57,3.99,2.66,8.7,2.58,9.08"/>
	<path class="st21" d="M165.67,258.15c4.47-0.45,9.36,1.6,12.77,5.37c4.97,5.5,4.09,11.65,4.01,12.15"/>
</g>
<linearGradient id="SVGID_00000109724024793587374310000014212679508885538992_" gradientUnits="userSpaceOnUse" x1="73.3315" y1="686.5131" x2="508.6293" y2="686.5131" gradientTransform="matrix(-1 0 0 -1 511.9383 844)">
	<stop  offset="2.793296e-03" style="stop-color:#F2313B;stop-opacity:0"/>
	<stop  offset="0.1201" style="stop-color:#F29286;stop-opacity:0.0248"/>
	<stop  offset="0.1984" style="stop-color:#F0A093;stop-opacity:0.1068"/>
	<stop  offset="0.2095" style="stop-color:#F0A599;stop-opacity:0.156"/>
	<stop  offset="0.3324" style="stop-color:#F3494A;stop-opacity:0.069"/>
	<stop  offset="0.5" style="stop-color:#F1AA9F;stop-opacity:0.26"/>
	<stop  offset="0.6425" style="stop-color:#F3494A;stop-opacity:0.069"/>
</linearGradient>
<path style="fill:url(#SVGID_00000109724024793587374310000014212679508885538992_);stroke:#000000;stroke-miterlimit:10;" d="
	M438.4,193.74c0.37-14-0.92-35.16-11.34-55.64c-27.74-54.48-87.61-40.34-202.47-88.09C149.7,18.9,137.87-2.61,102.15,5.65
	C55.61,16.4,14.92,66.94,5.4,125.53c-14.03,86.33,46.99,144.86,50.77,148.35c40.04,37.09,91.24,42.67,128.41,33.11
	c46.82-12.04,45.76-41.54,87.19-50.33c65.7-13.94,107.93,51.84,142.14,30.46C426.2,279.45,440.51,258.61,438.4,193.74z"/>
<g>
	<path class="st21" d="M189.42,211.6c0.71,2.16,0.22,4.77-1.29,6.81c-2.19,2.98-5.33,3.15-5.58,3.16"/>
	
		<ellipse transform="matrix(0.5472 -0.837 0.837 0.5472 -96.5548 250.8703)" class="st20" cx="183.58" cy="214.67" rx="3.17" ry="2.63"/>
	<path class="st21" d="M193.27,210.89c1.2,3.24,0.59,7.07-1.59,10.02c-3.19,4.3-7.98,4.37-8.36,4.37"/>
	<path class="st21" d="M197.82,209.77c1.35,4.29,0.33,9.49-2.67,13.59c-4.38,5.99-10.58,6.37-11.08,6.39"/>
</g>
<g>
	<path class="st21" d="M306.72,181.82c-2.22,0.5-4.77-0.23-6.66-1.92c-2.77-2.46-2.64-5.6-2.62-5.85"/>
	
		<ellipse transform="matrix(0.623 -0.7822 0.7822 0.623 -22.7591 304.214)" class="st20" cx="304.21" cy="175.72" rx="2.63" ry="3.17"/>
	<path class="st21" d="M307.07,185.72c-3.34,0.89-7.1-0.07-9.83-2.52c-3.98-3.57-3.61-8.35-3.57-8.74"/>
	<path class="st21" d="M307.75,190.35c-4.4,0.94-9.47-0.55-13.28-3.93c-5.55-4.92-5.35-11.13-5.33-11.63"/>
</g>
<linearGradient id="SVGID_00000096767537963715613470000009314919200815302079_" gradientUnits="userSpaceOnUse" x1="223.8749" y1="107.2024" x2="360.7935" y2="107.2024">
	<stop  offset="0.6145" style="stop-color:#F3494A;stop-opacity:0.069"/>
	<stop  offset="1" style="stop-color:#F5968F"/>
</linearGradient>
<path style="fill:url(#SVGID_00000096767537963715613470000009314919200815302079_);stroke:#000000;stroke-miterlimit:10;" d="
	M225.08,112.95l118.45,0.87l0.82,1.37c0.26-1.36,2.78-4.15,4.07-6.12c0.97-1.48,2.5-2.54,4.67-4.12c1.83-1.33,4.49-3.23,7.69-5.77
	h-0.47H239.88c-2.17,0.66-7.68,3.71-11.45,7.51c-2.65,2.68-3.74,6.65-4.55,8.52L225.08,112.95z"/>
<path class="st6" d="M72.18,195.85v6.43l0-0.04c0.01,0.39-0.28,0.71-0.6,0.72c-0.36,0.02-0.71-0.33-0.66-0.77l0,0.04v-6.39H72.18z"
	/>
<path class="st3" d="M195.32,185.41"/>
<linearGradient id="SVGID_00000060728352753057651780000006937804832907206324_" gradientUnits="userSpaceOnUse" x1="45.502" y1="192.7518" x2="211.4667" y2="192.7518">
	<stop  offset="0.095" style="stop-color:#F35150;stop-opacity:0.8"/>
	<stop  offset="0.3484" style="stop-color:#F2756C;stop-opacity:0.334"/>
	<stop  offset="0.5056" style="stop-color:#F2867B;stop-opacity:0.0449"/>
	<stop  offset="0.9413" style="stop-color:#6C413E;stop-opacity:0.7"/>
</linearGradient>
<polygon style="fill:url(#SVGID_00000060728352753057651780000006937804832907206324_);stroke:#000000;stroke-miterlimit:10;" points="
	211.47,194.26 210.98,190.41 210.29,189.41 46.69,189.6 45.95,190.18 45.5,195.56 46.41,196.09 210.77,195.69 "/>
<path class="st6" d="M190.86,185.63v6.43l0-0.04c0.01,0.39-0.28,0.71-0.6,0.72c-0.36,0.02-0.71-0.33-0.66-0.77l0,0.04v-6.39H190.86z
	"/>
<path class="st1" d="M109.53,184.41"/>
<path class="st6" d="M72.18,185.85v6.43l0-0.04c0.01,0.39-0.28,0.71-0.6,0.72c-0.36,0.02-0.71-0.33-0.66-0.77l0,0.04v-6.39H72.18z"
	/>
<path class="st3" d="M195.32,174.62"/>
<linearGradient id="SVGID_00000011739669238712411790000016153546218950483593_" gradientUnits="userSpaceOnUse" x1="45.502" y1="181.9642" x2="211.4667" y2="181.9642">
	<stop  offset="0.095" style="stop-color:#F35150;stop-opacity:0.8"/>
	<stop  offset="0.3484" style="stop-color:#F2756C;stop-opacity:0.334"/>
	<stop  offset="0.5056" style="stop-color:#F2867B;stop-opacity:0.0449"/>
	<stop  offset="0.9413" style="stop-color:#6C413E;stop-opacity:0.7"/>
</linearGradient>
<polygon style="fill:url(#SVGID_00000011739669238712411790000016153546218950483593_);stroke:#000000;stroke-miterlimit:10;" points="
	211.47,183.48 210.98,179.62 210.29,178.62 46.69,178.81 45.95,179.39 45.5,184.77 46.41,185.3 210.77,184.9 "/>
<path class="st6" d="M190.86,174.85v6.43l0-0.04c0.01,0.39-0.28,0.71-0.6,0.72c-0.36,0.02-0.71-0.33-0.66-0.77l0,0.04v-6.39H190.86z
	"/>
<path class="st1" d="M109.53,173.62"/>
<path class="st6" d="M72.18,175.07v6.43l0-0.04c0.01,0.39-0.28,0.71-0.6,0.72c-0.36,0.02-0.71-0.33-0.66-0.77l0,0.04v-6.39H72.18z"
	/>
<path class="st3" d="M195.32,163.94"/>
<linearGradient id="SVGID_00000130639175263051016340000009944037286742508722_" gradientUnits="userSpaceOnUse" x1="45.502" y1="171.284" x2="211.4667" y2="171.284">
	<stop  offset="0.095" style="stop-color:#F35150;stop-opacity:0.8"/>
	<stop  offset="0.3484" style="stop-color:#F2756C;stop-opacity:0.334"/>
	<stop  offset="0.5056" style="stop-color:#F2867B;stop-opacity:0.0449"/>
	<stop  offset="0.9413" style="stop-color:#6C413E;stop-opacity:0.7"/>
</linearGradient>
<polygon style="fill:url(#SVGID_00000130639175263051016340000009944037286742508722_);stroke:#000000;stroke-miterlimit:10;" points="
	211.47,172.8 210.98,168.94 210.29,167.94 46.69,168.13 45.95,168.71 45.5,174.09 46.41,174.62 210.77,174.22 "/>
<path class="st6" d="M190.86,164.17v6.43l0-0.04c0.01,0.39-0.28,0.71-0.6,0.72c-0.36,0.02-0.71-0.33-0.66-0.77l0,0.04v-6.39H190.86z
	"/>
<path class="st1" d="M109.53,162.94"/>
<path class="st6" d="M72.18,164.39v6.43l0-0.04c0.01,0.39-0.28,0.71-0.6,0.72c-0.36,0.02-0.71-0.33-0.66-0.77l0,0.04v-6.39H72.18z"
	/>
<path class="st3" d="M195.32,153.49"/>
<linearGradient id="SVGID_00000066512164259340859900000001115056248326854542_" gradientUnits="userSpaceOnUse" x1="45.502" y1="160.8266" x2="211.4667" y2="160.8266">
	<stop  offset="0.095" style="stop-color:#F35150;stop-opacity:0.8"/>
	<stop  offset="0.3484" style="stop-color:#F2756C;stop-opacity:0.334"/>
	<stop  offset="0.5056" style="stop-color:#F2867B;stop-opacity:0.0449"/>
	<stop  offset="0.9413" style="stop-color:#6C413E;stop-opacity:0.7"/>
</linearGradient>
<polygon style="fill:url(#SVGID_00000066512164259340859900000001115056248326854542_);stroke:#000000;stroke-miterlimit:10;" points="
	211.47,162.34 210.98,158.49 210.29,157.49 46.69,157.67 45.95,158.25 45.5,163.63 46.41,164.17 210.77,163.76 "/>
<path class="st6" d="M190.86,153.71v6.43l0-0.04c0.01,0.39-0.28,0.71-0.6,0.72c-0.36,0.02-0.71-0.33-0.66-0.77l0,0.04v-6.39H190.86z
	"/>
<path class="st1" d="M109.53,152.48"/>
<path class="st6" d="M72.18,153.93v6.43l0-0.04c0.01,0.39-0.28,0.71-0.6,0.72c-0.36,0.02-0.71-0.33-0.66-0.77l0,0.04v-6.39
	L72.18,153.93z"/>
<path class="st3" d="M195.32,143.03"/>
<linearGradient id="SVGID_00000134930920664708392440000011267940695898322817_" gradientUnits="userSpaceOnUse" x1="45.502" y1="150.3693" x2="211.4667" y2="150.3693">
	<stop  offset="0.095" style="stop-color:#F35150;stop-opacity:0.8"/>
	<stop  offset="0.3484" style="stop-color:#F2756C;stop-opacity:0.334"/>
	<stop  offset="0.5056" style="stop-color:#F2867B;stop-opacity:0.0449"/>
	<stop  offset="0.9413" style="stop-color:#6C413E;stop-opacity:0.7"/>
</linearGradient>
<polygon style="fill:url(#SVGID_00000134930920664708392440000011267940695898322817_);stroke:#000000;stroke-miterlimit:10;" points="
	211.47,151.88 210.98,148.03 210.29,147.03 46.69,147.21 45.95,147.8 45.5,153.17 46.41,153.71 210.77,153.3 "/>
<path class="st6" d="M190.86,143.25v6.43l0-0.04c0.01,0.39-0.28,0.71-0.6,0.72c-0.36,0.02-0.71-0.33-0.66-0.77l0,0.04v-6.39H190.86z
	"/>
<path class="st1" d="M109.53,142.02"/>
<path class="st6" d="M72.18,143.47v6.43l0-0.04c0.01,0.39-0.28,0.71-0.6,0.72c-0.36,0.02-0.71-0.33-0.66-0.77l0,0.04v-6.39H72.18z"
	/>
<path class="st3" d="M195.32,132.57"/>
<linearGradient id="SVGID_00000029734945924338986260000011059499078167481519_" gradientUnits="userSpaceOnUse" x1="45.502" y1="139.9119" x2="211.4667" y2="139.9119">
	<stop  offset="0.095" style="stop-color:#F35150;stop-opacity:0.8"/>
	<stop  offset="0.3484" style="stop-color:#F2756C;stop-opacity:0.334"/>
	<stop  offset="0.5056" style="stop-color:#F2867B;stop-opacity:0.0449"/>
	<stop  offset="0.9413" style="stop-color:#6C413E;stop-opacity:0.7"/>
</linearGradient>
<polygon style="fill:url(#SVGID_00000029734945924338986260000011059499078167481519_);stroke:#000000;stroke-miterlimit:10;" points="
	211.47,141.42 210.98,137.57 210.29,136.57 46.69,136.76 45.95,137.34 45.5,142.72 46.41,143.25 210.77,142.85 "/>
<path class="st6" d="M190.86,132.79v6.43l0-0.04c0.01,0.39-0.28,0.71-0.6,0.72c-0.36,0.02-0.71-0.33-0.66-0.77l0,0.04v-6.39H190.86z
	"/>
<path class="st1" d="M109.53,131.57"/>
<path class="st6" d="M72.18,133.01v6.43l0-0.04c0.01,0.39-0.28,0.71-0.6,0.72c-0.36,0.02-0.71-0.33-0.66-0.77l0,0.04v-6.39H72.18z"
	/>
<path class="st3" d="M195.32,122.11"/>
<linearGradient id="SVGID_00000015344691158053429560000000434057886183308182_" gradientUnits="userSpaceOnUse" x1="45.502" y1="129.4545" x2="211.4667" y2="129.4545">
	<stop  offset="0.095" style="stop-color:#F35150;stop-opacity:0.8"/>
	<stop  offset="0.3484" style="stop-color:#F2756C;stop-opacity:0.334"/>
	<stop  offset="0.5056" style="stop-color:#F2867B;stop-opacity:0.0449"/>
	<stop  offset="0.9413" style="stop-color:#6C413E;stop-opacity:0.7"/>
</linearGradient>
<polygon style="fill:url(#SVGID_00000015344691158053429560000000434057886183308182_);stroke:#000000;stroke-miterlimit:10;" points="
	211.47,130.97 210.98,127.12 210.29,126.11 46.69,126.3 45.95,126.88 45.5,132.26 46.41,132.79 210.77,132.39 "/>
<path class="st6" d="M190.86,122.34v6.43l0-0.04c0.01,0.39-0.28,0.71-0.6,0.72c-0.36,0.02-0.71-0.33-0.66-0.77l0,0.04v-6.39
	L190.86,122.34z"/>
<path class="st1" d="M109.53,121.11"/>
<path class="st6" d="M72.18,122.56v6.43l0-0.04c0.01,0.39-0.28,0.71-0.6,0.72c-0.36,0.02-0.71-0.33-0.66-0.77l0,0.04v-6.39H72.18z"
	/>
<path class="st3" d="M195.32,111.63"/>
<linearGradient id="SVGID_00000166667809615988821550000013700416350192487089_" gradientUnits="userSpaceOnUse" x1="45.502" y1="118.9713" x2="211.4667" y2="118.9713">
	<stop  offset="0.095" style="stop-color:#F35150;stop-opacity:0.8"/>
	<stop  offset="0.3484" style="stop-color:#F2756C;stop-opacity:0.334"/>
	<stop  offset="0.5056" style="stop-color:#F2867B;stop-opacity:0.0449"/>
	<stop  offset="0.9413" style="stop-color:#6C413E;stop-opacity:0.7"/>
</linearGradient>
<polygon style="fill:url(#SVGID_00000166667809615988821550000013700416350192487089_);stroke:#000000;stroke-miterlimit:10;" points="
	211.47,120.48 210.98,116.63 210.29,115.63 46.69,115.81 45.95,116.4 45.5,121.78 46.41,122.31 210.77,121.91 "/>
<path class="st6" d="M190.86,111.85v6.43l0-0.04c0.01,0.39-0.28,0.71-0.6,0.72c-0.36,0.02-0.71-0.33-0.66-0.77l0,0.04v-6.39
	L190.86,111.85z"/>
<path class="st1" d="M109.53,110.63"/>
<path class="st6" d="M72.18,112.07v6.43l0-0.04c0.01,0.39-0.28,0.71-0.6,0.72c-0.36,0.02-0.71-0.33-0.66-0.77l0,0.04v-6.39H72.18z"
	/>
<path class="st3" d="M195.32,101.17"/>
<linearGradient id="SVGID_00000066485013577890151600000015434123418733632933_" gradientUnits="userSpaceOnUse" x1="45.502" y1="108.5139" x2="211.4667" y2="108.5139">
	<stop  offset="0.095" style="stop-color:#F35150;stop-opacity:0.8"/>
	<stop  offset="0.3484" style="stop-color:#F2756C;stop-opacity:0.334"/>
	<stop  offset="0.5056" style="stop-color:#F2867B;stop-opacity:0.0449"/>
	<stop  offset="0.9413" style="stop-color:#6C413E;stop-opacity:0.7"/>
</linearGradient>
<polygon style="fill:url(#SVGID_00000066485013577890151600000015434123418733632933_);stroke:#000000;stroke-miterlimit:10;" points="
	211.47,110.03 210.98,106.17 210.29,105.17 46.69,105.36 45.95,105.94 45.5,111.32 46.41,111.85 210.77,111.45 "/>
<path class="st6" d="M190.86,101.4v6.43l0-0.04c0.01,0.39-0.28,0.71-0.6,0.72c-0.36,0.02-0.71-0.33-0.66-0.77l0,0.04v-6.39H190.86z"
	/>
<path class="st1" d="M109.53,100.17"/>
<path class="st6" d="M72.18,101.62v6.43l0-0.04c0.01,0.39-0.28,0.71-0.6,0.72c-0.36,0.02-0.71-0.33-0.66-0.77l0,0.04v-6.39
	L72.18,101.62z"/>
<path class="st3" d="M195.32,90.58"/>
<linearGradient id="SVGID_00000134958389654594949380000004435019283201184674_" gradientUnits="userSpaceOnUse" x1="45.502" y1="97.9183" x2="211.4667" y2="97.9183">
	<stop  offset="0.095" style="stop-color:#F35150;stop-opacity:0.8"/>
	<stop  offset="0.3484" style="stop-color:#F2756C;stop-opacity:0.334"/>
	<stop  offset="0.5056" style="stop-color:#F2867B;stop-opacity:0.0449"/>
	<stop  offset="0.9413" style="stop-color:#6C413E;stop-opacity:0.7"/>
</linearGradient>
<polygon style="fill:url(#SVGID_00000134958389654594949380000004435019283201184674_);stroke:#000000;stroke-miterlimit:10;" points="
	211.47,99.43 210.98,95.58 210.29,94.58 46.69,94.76 45.95,95.34 45.5,100.72 46.41,101.26 210.77,100.85 "/>
<path class="st1" d="M109.53,89.57"/>
<path class="st9" d="M191.17,76.83v19.55l0,0.05c0.01,0.39-0.28,0.71-0.6,0.72c-0.36,0.02-0.71-0.33-0.66-0.77l0-0.04v-19.8
	L191.17,76.83z"/>
<path class="st9" d="M72.01,76.73v19.55l0-0.04c0.01,0.39-0.28,0.71-0.6,0.72c-0.36,0.02-0.71-0.33-0.66-0.77l0,0.04v-19.8
	L72.01,76.73z"/>
</svg>
