<svg version="1.1" viewBox="0.0 0.0 132.28346456692913 45.354330708661415" fill="none" stroke="none" stroke-linecap="square" stroke-miterlimit="10" xmlns:xlink="http://www.w3.org/1999/xlink" xmlns="http://www.w3.org/2000/svg"><clipPath id="p.0"><path d="m0 0l132.28346 0l0 45.354332l-132.28346 0l0 -45.354332z" clip-rule="nonzero"/></clipPath><g clip-path="url(#p.0)"><path fill="#000000" fill-opacity="0.0" d="m0 0l132.28346 0l0 45.354332l-132.28346 0z" fill-rule="evenodd"/><path fill="#000000" fill-opacity="0.0" d="m-5.6378355 -64.46719l143.55905 0l0 50.866142l-143.55905 0z" fill-rule="evenodd"/><path fill="#a52d2d" d="m45.346584 1.4896795l0 0.8593749q-0.9375 0.34375 -1.96875 1.46875q-1.015625 1.125 -1.78125 3.609375l-7.515625 24.34375q-0.34375 -0.03125 -0.734375 -0.03125q-0.375 0 -0.75 0q-0.390625 0 -0.7812481 0q-0.375 0 -0.71875 0.03125l-8.953125 -27.125q-0.421875 -1.3125 -1.046875 -1.78125q-0.625 -0.484375 -1.296875 -0.515625l0 -0.8593749q1.1875 0.046875 2.828125 0.09375q1.640625 0.03125 3.265625 0.03125q1.875 0 3.515625 -0.03125q1.640625 -0.046875 2.624998 -0.09375l0 0.8593749q-1.2812481 0.03125 -2.031248 0.296875q-0.734375 0.25 -0.84375 0.984375q-0.109375 0.71875 0.40625 2.296875l6.062498 18.515625l-0.984375 1.75l4.8125 -15.3125q1.03125 -3.25 0.984375 -5.078125q-0.046875 -1.828125 -0.984375 -2.625q-0.9375 -0.796875 -2.6875 -0.828125l0 -0.8593749q1.453125 0.046875 2.734375 0.09375q1.28125 0.03125 2.5625 0.03125q0.984375 0 1.8125 -0.03125q0.828125 -0.046875 1.46875 -0.09375zm-30.453125 0l0 0.8593749q-0.859375 0.125 -1.203125 0.625q-0.328125 0.484375 -0.265625 1.28125q0.0625 0.78125 0.359375 1.671875l6.531251 18.9375l-1.15625 1.53125l5.453125 -15.953125l0.59375 1.15625l-6.6875 20.171875q-0.34375 -0.03125 -0.734375 -0.03125q-0.375 0 -0.765625 0q-0.375 0 -0.765625 0q-0.37500095 0 -0.71875095 0.03125l-9.5625 -26.703125q-0.546875 -1.578125 -1.296875 -2.125q-0.75 -0.5625 -1.390625 -0.59375l0 -0.8593749q1.28125 0.046875 3.03125 0.09375q1.75 0.03125 3.328125 0.03125q1.703125 0 3.046875 -0.03125q1.34375 -0.046875 2.203125 -0.09375zm46.878937 -0.59375q4.515629 0 7.906254 1.8437499q3.390625 1.828125 5.265625 5.265625q1.875 3.421875 1.875 8.328125q0 4.78125 -1.921875 8.375q-1.90625 3.578125 -5.34375 5.578125q-3.4375 2.000002 -7.828129 2.000002q-4.515625 0 -7.90625 -1.8281269q-3.390625 -1.84375 -5.28125 -5.296875q-1.875 -3.453125 -1.875 -8.3125q0 -4.78125 1.9375 -8.359375q1.953125 -3.578125 5.34375 -5.578125q3.390625 -2.015625 7.828125 -2.015625zm-0.171875 0.765625q-2.390625 0 -4.171875 1.9218749q-1.765625 1.921875 -2.71875 5.296875q-0.953125 3.359375 -0.953125 7.796875q0 4.515625 1.078125 7.875q1.09375 3.34375 2.9375 5.15625q1.859375 1.8125 4.125 1.8125q2.3906288 0 4.156254 -1.921875q1.765625 -1.921875 2.71875 -5.3125q0.96875 -3.390625 0.96875 -7.78125q0 -4.5625 -1.09375 -7.890625q-1.078125 -3.328125 -2.9375 -5.140625q-1.8437538 -1.8124999 -4.109379 -1.8124999zm29.170109 -0.71875q2.515625 0 3.875 0.53125q1.375 0.5312499 2.359375 1.1249999q0.515625 0.296875 0.828125 0.453125q0.328125 0.140625 0.625 0.140625q0.421875 0 0.609375 -0.46875q0.203125 -0.46875 0.328125 -1.4062499l0.984375 0q-0.046875 0.8124999 -0.109375 1.9531249q-0.0625 1.125 -0.09375 2.96875q-0.015625 1.828125 -0.015625 4.8125l-0.984375 0q-0.171875 -2.21875 -1.03125 -4.3125q-0.84375 -2.09375 -2.40625 -3.4375q-1.546875 -1.3437499 -3.8125 -1.3437499q-2.046875 0 -3.375 1.1562499q-1.3125 1.15625 -1.3125 3.203125q0 1.703125 0.84375 2.921875q0.859375 1.203125 2.5 2.359375q1.640625 1.15625 3.984375 2.78125q2.046875 1.3125 3.671875 2.640625q1.625 1.328125 2.59375 2.984375q0.984375 1.65625 0.984375 3.96875q0 2.8125 -1.46875 4.65625q-1.46875 1.828125 -3.859375 2.75q-2.390625 0.9062519 -5.25 0.9062519q-2.640625 0 -4.21875 -0.5156269q-1.578125 -0.5 -2.640625 -1.0625q-0.9375 -0.59375 -1.453125 -0.59375q-0.421875 0 -0.625 0.46875q-0.1875 0.46875 -0.3125 1.40625l-0.984375 0q0.09375 -1.015625 0.109375 -2.375q0.015625 -1.375 0.03125 -3.5625q0.03125 -2.203125 0.03125 -5.578125l0.984375 0q0.171875 2.8125 0.953125 5.265625q0.796875 2.453125 2.4375 3.953125q1.640625 1.484375 4.375 1.484375q1.484375 0 2.65625 -0.53125q1.171875 -0.53125 1.890625 -1.59375q0.734375 -1.078125 0.734375 -2.65625q0 -1.78125 -0.828125 -3.09375q-0.828125 -1.328125 -2.265625 -2.484375q-1.421875 -1.15625 -3.296875 -2.34375q-2.015625 -1.328125 -3.765625 -2.640625q-1.734375 -1.328125 -2.78125 -3.03125q-1.046875 -1.71875 -1.046875 -4.0625q0 -2.6875 1.34375 -4.40625q1.34375 -1.734375 3.53125 -2.5625q2.203125 -0.828125 4.671875 -0.828125zm24.91121 0q2.515625 0 3.875 0.53125q1.375 0.5312499 2.359375 1.1249999q0.515625 0.296875 0.828125 0.453125q0.328125 0.140625 0.625 0.140625q0.421875 0 0.609375 -0.46875q0.203125 -0.46875 0.328125 -1.4062499l0.984375 0q-0.046875 0.8124999 -0.109375 1.9531249q-0.0625 1.125 -0.09375 2.96875q-0.015625 1.828125 -0.015625 4.8125l-0.984375 0q-0.171875 -2.21875 -1.03125 -4.3125q-0.84375 -2.09375 -2.40625 -3.4375q-1.546875 -1.3437499 -3.8125 -1.3437499q-2.046875 0 -3.375 1.1562499q-1.3125 1.15625 -1.3125 3.203125q0 1.703125 0.84375 2.921875q0.859375 1.203125 2.5 2.359375q1.640625 1.15625 3.984375 2.78125q2.046875 1.3125 3.671875 2.640625q1.625 1.328125 2.59375 2.984375q0.984375 1.65625 0.984375 3.96875q0 2.8125 -1.46875 4.65625q-1.46875 1.828125 -3.859375 2.75q-2.390625 0.9062519 -5.25 0.9062519q-2.640625 0 -4.21875 -0.5156269q-1.578125 -0.5 -2.640625 -1.0625q-0.9375 -0.59375 -1.453125 -0.59375q-0.421875 0 -0.625 0.46875q-0.1875 0.46875 -0.3125 1.40625l-0.984375 0q0.09375 -1.015625 0.109375 -2.375q0.015625 -1.375 0.03125 -3.5625q0.03125 -2.203125 0.03125 -5.578125l0.984375 0q0.171875 2.8125 0.953125 5.265625q0.796875 2.453125 2.4375 3.953125q1.640625 1.484375 4.375 1.484375q1.484375 0 2.65625 -0.53125q1.171875 -0.53125 1.890625 -1.59375q0.734375 -1.078125 0.734375 -2.65625q0 -1.78125 -0.828125 -3.09375q-0.828125 -1.328125 -2.265625 -2.484375q-1.421875 -1.15625 -3.296875 -2.34375q-2.015625 -1.328125 -3.765625 -2.640625q-1.734375 -1.328125 -2.78125 -3.03125q-1.046875 -1.71875 -1.046875 -4.0625q0 -2.6875 1.34375 -4.40625q1.34375 -1.734375 3.53125 -2.5625q2.203125 -0.828125 4.671875 -0.828125z" fill-rule="nonzero"/><path fill="#000000" fill-opacity="0.0" d="m22.31496 27.95013l87.65355 0l0 23.496063l-87.65355 0z" fill-rule="evenodd"/><path fill="#13366f" d="m38.126587 34.97013l0 0.25q-0.40625 0 -0.625 0.078125q-0.203125 0.078125 -0.28125 0.296875q-0.078125 0.203125 -0.078125 0.65625l0 5.953125q0 0.421875 0.078125 0.640625q0.078125 0.21875 0.28125 0.296875q0.21875 0.0625 0.625 0.09375l0 0.234375q-0.28125 -0.03125 -0.703125 -0.03125q-0.40625 0 -0.828125 0q-0.46875 0 -0.875 0q-0.40625 0 -0.65625 0.03125l0 -0.234375q0.40625 -0.03125 0.609375 -0.09375q0.21875 -0.078125 0.28125 -0.296875q0.078125 -0.21875 0.078125 -0.640625l0 -6.609375l0.046875 0.03125l-2.9375 7.90625l-0.1875 0l-3.03125 -7.796875l0 6.34375q0 0.4375 0.078125 0.6875q0.078125 0.234375 0.3125 0.34375q0.234375 0.09375 0.703125 0.125l0 0.234375q-0.21875 -0.03125 -0.5625 -0.03125q-0.34375 0 -0.65625 0q-0.3125 0 -0.625 0q-0.296875 0 -0.5 0.03125l0 -0.234375q0.40625 -0.03125 0.609375 -0.125q0.21875 -0.109375 0.28125 -0.34375q0.078125 -0.25 0.078125 -0.6875l0 -5.828125q0 -0.453125 -0.078125 -0.65625q-0.0625 -0.21875 -0.28125 -0.296875q-0.203125 -0.078125 -0.609375 -0.078125l0 -0.25q0.203125 0.015625 0.5 0.03125q0.3125 0.015625 0.625 0.015625q0.265625 0 0.546875 -0.015625q0.28125 -0.015625 0.46875 -0.03125l2.71875 7.1875l-0.203125 0.09375l2.703125 -7.234375q0.140625 0 0.28125 0q0.140625 0 0.28125 0q0.421875 0 0.828125 -0.015625q0.421875 -0.015625 0.703125 -0.03125zm6.1638184 2.1875l0 5.015625q0 0.546875 0.1875 0.8125q0.203125 0.25 0.71875 0.25l0 0.25q-0.359375 -0.046875 -0.734375 -0.046875q-0.359375 0 -0.671875 0.03125q-0.3125 0.046875 -0.578125 0.140625l0 -1.40625q-0.296875 0.78125 -0.84375 1.109375q-0.546875 0.328125 -1.125 0.328125q-0.421875 0 -0.734375 -0.125q-0.3125 -0.125 -0.515625 -0.328125q-0.234375 -0.25 -0.3125 -0.625q-0.078125 -0.390625 -0.078125 -0.953125l0 -3.015625q0 -0.53125 -0.203125 -0.78125q-0.1875 -0.265625 -0.71875 -0.265625l0 -0.265625q0.390625 0.046875 0.75 0.046875q0.34375 0 0.65625 -0.046875q0.328125 -0.046875 0.59375 -0.125l0 4.71875q0 0.375 0.046875 0.6875q0.046875 0.3125 0.234375 0.5q0.1875 0.1875 0.625 0.1875q0.46875 0 0.828125 -0.28125q0.375 -0.296875 0.578125 -0.78125q0.21875 -0.5 0.21875 -1.109375l0 -2.484375q0 -0.53125 -0.203125 -0.78125q-0.1875 -0.265625 -0.71875 -0.265625l0 -0.265625q0.390625 0.046875 0.75 0.046875q0.34375 0 0.65625 -0.046875q0.328125 -0.046875 0.59375 -0.125zm3.425171 -3.09375l0 8.296875q0 0.5 0.203125 0.6875q0.21875 0.171875 0.71875 0.171875l0 0.25q-0.203125 -0.015625 -0.625 -0.03125q-0.40625 -0.015625 -0.828125 -0.015625q-0.40625 0 -0.828125 0.015625q-0.421875 0.015625 -0.625 0.03125l0 -0.25q0.484375 0 0.6875 -0.171875q0.21875 -0.1875 0.21875 -0.6875l0 -6.859375q0 -0.546875 -0.1875 -0.796875q-0.1875 -0.265625 -0.71875 -0.265625l0 -0.25q0.375 0.046875 0.75 0.046875q0.34375 0 0.65625 -0.046875q0.3125 -0.046875 0.578125 -0.125zm3.463272 1.234375l0 2.0l1.78125 0l0 0.25l-1.78125 0l0 4.640625q0 0.5625 0.203125 0.796875q0.203125 0.21875 0.5625 0.21875q0.359375 0 0.625 -0.296875q0.265625 -0.296875 0.453125 -0.984375l0.25 0.0625q-0.125 0.6875 -0.484375 1.171875q-0.34375 0.484375 -1.078125 0.484375q-0.40625 0 -0.671875 -0.109375q-0.265625 -0.09375 -0.46875 -0.296875q-0.265625 -0.265625 -0.375 -0.640625q-0.09375 -0.390625 -0.09375 -1.03125l0 -4.015625l-1.15625 0l0 -0.25l1.15625 0l0 -1.828125q0.296875 -0.015625 0.5625 -0.046875q0.28125 -0.046875 0.515625 -0.125zm3.6855316 -1.015625q0.3125 0 0.53125 0.234375q0.234375 0.234375 0.234375 0.546875q0 0.3125 -0.234375 0.546875q-0.21875 0.21875 -0.53125 0.21875q-0.3125 0 -0.546875 -0.21875q-0.21875 -0.234375 -0.21875 -0.546875q0 -0.3125 0.21875 -0.546875q0.234375 -0.234375 0.546875 -0.234375zm0.625 2.875l0 5.203125q0 0.5 0.203125 0.6875q0.21875 0.171875 0.703125 0.171875l0 0.25q-0.203125 -0.015625 -0.625 -0.03125q-0.40625 -0.015625 -0.828125 -0.015625q-0.40625 0 -0.828125 0.015625q-0.421875 0.015625 -0.625 0.03125l0 -0.25q0.5 0 0.703125 -0.171875q0.21875 -0.1875 0.21875 -0.6875l0 -3.765625q0 -0.53125 -0.203125 -0.78125q-0.1875 -0.265625 -0.71875 -0.265625l0 -0.265625q0.390625 0.046875 0.75 0.046875q0.34375 0 0.65625 -0.046875q0.328125 -0.046875 0.59375 -0.125zm3.6722717 -0.03125q0.46875 0 0.796875 0.15625q0.34375 0.15625 0.5 0.28125q0.40625 0.328125 0.484375 -0.4375l0.28125 0q-0.03125 0.34375 -0.046875 0.8125q0 0.453125 0 1.234375l-0.28125 0q-0.078125 -0.4375 -0.25 -0.859375q-0.171875 -0.421875 -0.515625 -0.6875q-0.328125 -0.28125 -0.859375 -0.28125q-0.421875 0 -0.703125 0.234375q-0.28125 0.234375 -0.28125 0.6875q0 0.359375 0.203125 0.625q0.21875 0.265625 0.5625 0.484375q0.359375 0.21875 0.765625 0.484375q0.453125 0.28125 0.828125 0.59375q0.375 0.296875 0.59375 0.65625q0.21875 0.359375 0.21875 0.84375q0 0.5625 -0.296875 0.9375q-0.28125 0.359375 -0.75 0.5625q-0.453125 0.1875 -1.0 0.1875q-0.265625 0 -0.5 -0.046875q-0.234375 -0.046875 -0.453125 -0.125q-0.109375 -0.0625 -0.25 -0.140625q-0.125 -0.09375 -0.234375 -0.1875q-0.125 -0.09375 -0.21875 0.015625q-0.09375 0.09375 -0.140625 0.390625l-0.28125 0q0.03125 -0.375 0.03125 -0.921875q0.015625 -0.5625 0.015625 -1.46875l0.28125 0q0.078125 0.671875 0.234375 1.171875q0.15625 0.5 0.484375 0.78125q0.34375 0.28125 0.9375 0.28125q0.25 0 0.484375 -0.09375q0.25 -0.109375 0.421875 -0.359375q0.171875 -0.265625 0.171875 -0.6875q0 -0.515625 -0.390625 -0.84375q-0.375 -0.34375 -0.96875 -0.71875q-0.4375 -0.28125 -0.8125 -0.546875q-0.375 -0.28125 -0.609375 -0.625q-0.234375 -0.359375 -0.234375 -0.84375q0 -0.546875 0.25 -0.890625q0.25 -0.34375 0.65625 -0.5q0.40625 -0.15625 0.875 -0.15625zm6.129669 0q1.046875 0 1.640625 0.640625q0.609375 0.640625 0.609375 2.0l-4.25 0l0 -0.234375l3.09375 0q0.015625 -0.59375 -0.109375 -1.078125q-0.109375 -0.5 -0.375 -0.796875q-0.25 -0.3125 -0.65625 -0.3125q-0.5625 0 -0.984375 0.5625q-0.421875 0.546875 -0.5 1.75l0.03125 0.046875q-0.03125 0.171875 -0.046875 0.390625q0 0.21875 0 0.4375q0 0.8125 0.265625 1.40625q0.265625 0.578125 0.6875 0.890625q0.421875 0.296875 0.875 0.296875q0.359375 0 0.6875 -0.109375q0.328125 -0.109375 0.59375 -0.375q0.28125 -0.265625 0.484375 -0.703125l0.25 0.09375q-0.140625 0.390625 -0.4375 0.765625q-0.296875 0.375 -0.765625 0.609375q-0.453125 0.234375 -1.046875 0.234375q-0.859375 0 -1.484375 -0.390625q-0.609375 -0.40625 -0.953125 -1.109375q-0.328125 -0.703125 -0.328125 -1.609375q0 -1.0625 0.328125 -1.8125q0.34375 -0.765625 0.953125 -1.171875q0.625 -0.421875 1.4375 -0.421875zm6.8845367 0q0.328125 0 0.5625 0.140625q0.25 0.125 0.390625 0.34375q0.140625 0.203125 0.140625 0.453125q0 0.3125 -0.1875 0.546875q-0.1875 0.21875 -0.5 0.21875q-0.25 0 -0.4375 -0.15625q-0.1875 -0.171875 -0.1875 -0.46875q0 -0.234375 0.125 -0.390625q0.125 -0.15625 0.28125 -0.265625q-0.09375 -0.109375 -0.25 -0.109375q-0.375 0 -0.6875 0.21875q-0.3125 0.21875 -0.53125 0.578125q-0.21875 0.34375 -0.34375 0.734375q-0.109375 0.390625 -0.109375 0.71875l0 2.546875q0 0.59375 0.34375 0.796875q0.34375 0.1875 0.921875 0.1875l0 0.25q-0.265625 -0.015625 -0.78125 -0.03125q-0.5 -0.015625 -1.0625 -0.015625q-0.40625 0 -0.8125 0.015625q-0.40625 0.015625 -0.609375 0.03125l0 -0.25q0.5 0 0.703125 -0.171875q0.21875 -0.1875 0.21875 -0.6875l0 -3.765625q0 -0.53125 -0.203125 -0.78125q-0.1875 -0.265625 -0.71875 -0.265625l0 -0.265625q0.390625 0.046875 0.75 0.046875q0.34375 0 0.65625 -0.046875q0.328125 -0.046875 0.59375 -0.125l0 1.5q0.125 -0.34375 0.375 -0.703125q0.25 -0.359375 0.59375 -0.59375q0.34375 -0.234375 0.765625 -0.234375zm7.090042 0.15625l0 0.25q-0.21875 0.015625 -0.421875 0.203125q-0.1875 0.171875 -0.359375 0.640625l-1.96875 5.15625q-0.046875 0 -0.09375 0q-0.046875 0 -0.109375 0l-2.203125 -5.3125q-0.1875 -0.46875 -0.375 -0.5625q-0.1875 -0.109375 -0.328125 -0.109375l0 -0.265625q0.25 0.015625 0.5 0.046875q0.265625 0.015625 0.5625 0.015625q0.375 0 0.78125 -0.015625q0.421875 -0.015625 0.78125 -0.046875l0 0.265625q-0.296875 0 -0.53125 0.046875q-0.234375 0.03125 -0.3125 0.234375q-0.0625 0.1875 0.125 0.65625l1.5 3.703125l-0.078125 0.0625l1.375 -3.59375q0.15625 -0.390625 0.125 -0.625q-0.03125 -0.234375 -0.25 -0.359375q-0.203125 -0.125 -0.640625 -0.140625l0 -0.25q0.21875 0.015625 0.375 0.03125q0.15625 0 0.296875 0.015625q0.15625 0 0.34375 0q0.28125 0 0.5 -0.015625q0.21875 -0.015625 0.40625 -0.03125zm1.758667 -3.0q0.3125 0 0.53125 0.234375q0.234375 0.234375 0.234375 0.546875q0 0.3125 -0.234375 0.546875q-0.21875 0.21875 -0.53125 0.21875q-0.3125 0 -0.546875 -0.21875q-0.21875 -0.234375 -0.21875 -0.546875q0 -0.3125 0.21875 -0.546875q0.234375 -0.234375 0.546875 -0.234375zm0.625 2.875l0 5.203125q0 0.5 0.203125 0.6875q0.21875 0.171875 0.703125 0.171875l0 0.25q-0.203125 -0.015625 -0.625 -0.03125q-0.40625 -0.015625 -0.828125 -0.015625q-0.40625 0 -0.828125 0.015625q-0.421875 0.015625 -0.625 0.03125l0 -0.25q0.5 0 0.703125 -0.171875q0.21875 -0.1875 0.21875 -0.6875l0 -3.765625q0 -0.53125 -0.203125 -0.78125q-0.1875 -0.265625 -0.71875 -0.265625l0 -0.265625q0.390625 0.046875 0.75 0.046875q0.34375 0 0.65625 -0.046875q0.328125 -0.046875 0.59375 -0.125zm4.5160217 -0.03125q0.39063263 0 0.7500076 0.09375q0.359375 0.09375 0.640625 0.28125q0.28125 0.1875 0.421875 0.421875q0.140625 0.234375 0.140625 0.5q0 0.328125 -0.1875 0.5q-0.171875 0.171875 -0.4375 0.171875q-0.265625 0 -0.46875 -0.15625q-0.1875 -0.15625 -0.1875 -0.4375q0 -0.28125 0.140625 -0.4375q0.15625 -0.171875 0.359375 -0.21875q-0.125 -0.21875 -0.4375 -0.359375q-0.296875 -0.140625 -0.6406326 -0.140625q-0.3125 0 -0.609375 0.140625q-0.296875 0.140625 -0.546875 0.46875q-0.25 0.328125 -0.40625 0.90625q-0.15625 0.5625 -0.15625 1.421875q0 1.046875 0.234375 1.671875q0.25 0.625 0.625 0.90625q0.390625 0.265625 0.859375 0.265625q0.31250763 0 0.6406326 -0.125q0.328125 -0.125 0.609375 -0.390625q0.296875 -0.265625 0.5 -0.71875l0.21875 0.078125q-0.109375 0.390625 -0.390625 0.78125q-0.28125 0.375 -0.71875 0.640625q-0.4375 0.25 -1.0937576 0.25q-0.75 0 -1.34375 -0.375q-0.59375 -0.390625 -0.953125 -1.109375q-0.359375 -0.71875 -0.359375 -1.703125q0 -0.984375 0.359375 -1.734375q0.359375 -0.75 0.984375 -1.171875q0.640625 -0.421875 1.453125 -0.421875zm4.207054 -2.84375q0.3125 0 0.53125 0.234375q0.234375 0.234375 0.234375 0.546875q0 0.3125 -0.234375 0.546875q-0.21875 0.21875 -0.53125 0.21875q-0.3125 0 -0.546875 -0.21875q-0.21875 -0.234375 -0.21875 -0.546875q0 -0.3125 0.21875 -0.546875q0.234375 -0.234375 0.546875 -0.234375zm0.625 2.875l0 5.203125q0 0.5 0.203125 0.6875q0.21875 0.171875 0.703125 0.171875l0 0.25q-0.203125 -0.015625 -0.625 -0.03125q-0.40625 -0.015625 -0.828125 -0.015625q-0.40625 0 -0.828125 0.015625q-0.421875 0.015625 -0.625 0.03125l0 -0.25q0.5 0 0.703125 -0.171875q0.21875 -0.1875 0.21875 -0.6875l0 -3.765625q0 -0.53125 -0.203125 -0.78125q-0.1875 -0.265625 -0.71875 -0.265625l0 -0.265625q0.390625 0.046875 0.75 0.046875q0.34375 0 0.65625 -0.046875q0.328125 -0.046875 0.59375 -0.125zm4.4535217 -0.03125q0.78125 0 1.390625 0.34375q0.609375 0.328125 0.96875 1.046875q0.375 0.71875 0.375 1.875q0 1.140625 -0.375 1.859375q-0.359375 0.71875 -0.96875 1.0625q-0.609375 0.328125 -1.390625 0.328125q-0.75 0 -1.375 -0.328125q-0.609375 -0.34375 -0.984375 -1.0625q-0.359375 -0.71875 -0.359375 -1.859375q0 -1.15625 0.359375 -1.875q0.375 -0.71875 0.984375 -1.046875q0.625 -0.34375 1.375 -0.34375zm0 0.234375q-0.671875 0 -1.109375 0.71875q-0.4375 0.703125 -0.4375 2.3125q0 1.609375 0.4375 2.3125q0.4375 0.6875 1.109375 0.6875q0.6875 0 1.125 -0.6875q0.4375 -0.703125 0.4375 -2.3125q0 -1.609375 -0.4375 -2.3125q-0.4375 -0.71875 -1.125 -0.71875zm5.7948 -0.234375q0.46875 0 0.796875 0.15625q0.34375 0.15625 0.5 0.28125q0.40625 0.328125 0.484375 -0.4375l0.28125 0q-0.03125 0.34375 -0.046875 0.8125q0 0.453125 0 1.234375l-0.28125 0q-0.078125 -0.4375 -0.25 -0.859375q-0.171875 -0.421875 -0.515625 -0.6875q-0.328125 -0.28125 -0.859375 -0.28125q-0.421875 0 -0.703125 0.234375q-0.28125 0.234375 -0.28125 0.6875q0 0.359375 0.203125 0.625q0.21875 0.265625 0.5625 0.484375q0.359375 0.21875 0.765625 0.484375q0.453125 0.28125 0.828125 0.59375q0.375 0.296875 0.59375 0.65625q0.21875 0.359375 0.21875 0.84375q0 0.5625 -0.296875 0.9375q-0.28125 0.359375 -0.75 0.5625q-0.453125 0.1875 -1.0 0.1875q-0.265625 0 -0.5 -0.046875q-0.234375 -0.046875 -0.453125 -0.125q-0.109375 -0.0625 -0.25 -0.140625q-0.125 -0.09375 -0.234375 -0.1875q-0.125 -0.09375 -0.21875 0.015625q-0.09375 0.09375 -0.140625 0.390625l-0.28125 0q0.03125 -0.375 0.03125 -0.921875q0.015625 -0.5625 0.015625 -1.46875l0.28125 0q0.078125 0.671875 0.234375 1.171875q0.15625 0.5 0.484375 0.78125q0.34375 0.28125 0.9375 0.28125q0.25 0 0.484375 -0.09375q0.25 -0.109375 0.421875 -0.359375q0.171875 -0.265625 0.171875 -0.6875q0 -0.515625 -0.390625 -0.84375q-0.375 -0.34375 -0.96875 -0.71875q-0.4375 -0.28125 -0.8125 -0.546875q-0.375 -0.28125 -0.609375 -0.625q-0.234375 -0.359375 -0.234375 -0.84375q0 -0.546875 0.25 -0.890625q0.25 -0.34375 0.65625 -0.5q0.40625 -0.15625 0.875 -0.15625z" fill-rule="nonzero"/></g></svg>